<svg class="main-svg" xmlns="http://www.w3.org/2000/svg" xmlns:xlink="http://www.w3.org/1999/xlink" width="600" height="400" style=""><rect x="0" y="0" width="600" height="400" style="fill: rgb(255, 255, 255); fill-opacity: 1;"/><defs id="defs-a09b68"><g class="clips"><clipPath id="clipa09b68xyplot" class="plotclip"><rect width="486.57042869641293" height="255.41338582677164"/></clipPath><clipPath class="axesclip" id="clipa09b68x"><rect x="109.4925634295713" y="0" width="486.57042869641293" height="400"/></clipPath><clipPath class="axesclip" id="clipa09b68y"><rect x="0" y="61.043307086614156" width="600" height="255.41338582677164"/></clipPath><clipPath class="axesclip" id="clipa09b68xy"><rect x="109.4925634295713" y="61.043307086614156" width="486.57042869641293" height="255.41338582677164"/></clipPath></g><g class="gradients"/><g class="patterns"/></defs><g class="bglayer"><rect class="bg" x="109.4925634295713" y="61.043307086614156" width="486.57042869641293" height="255.41338582677164" style="fill: rgb(235, 235, 235); fill-opacity: 1; stroke-width: 0;"/></g><g class="layer-below"><g class="imagelayer"/><g class="shapelayer"/></g><g class="cartesianlayer"><g class="subplot xy"><g class="layer-subplot"><g class="shapelayer"/><g class="imagelayer"/></g><g class="gridlayer"><g class="x"><path class="xgrid crisp" transform="translate(123.2625634295713,0)" d="M0,61.043307086614156v255.41338582677164" style="stroke: rgb(255, 255, 255); stroke-opacity: 1; stroke-width: 1px;"/><path class="xgrid crisp" transform="translate(215.0725634295713,0)" d="M0,61.043307086614156v255.41338582677164" style="stroke: rgb(255, 255, 255); stroke-opacity: 1; stroke-width: 1px;"/><path class="xgrid crisp" transform="translate(306.8725634295713,0)" d="M0,61.043307086614156v255.41338582677164" style="stroke: rgb(255, 255, 255); stroke-opacity: 1; stroke-width: 1px;"/><path class="xgrid crisp" transform="translate(398.6825634295713,0)" d="M0,61.043307086614156v255.41338582677164" style="stroke: rgb(255, 255, 255); stroke-opacity: 1; stroke-width: 1px;"/><path class="xgrid crisp" transform="translate(490.4825634295713,0)" d="M0,61.043307086614156v255.41338582677164" style="stroke: rgb(255, 255, 255); stroke-opacity: 1; stroke-width: 1px;"/><path class="xgrid crisp" transform="translate(582.2925634295714,0)" d="M0,61.043307086614156v255.41338582677164" style="stroke: rgb(255, 255, 255); stroke-opacity: 1; stroke-width: 1px;"/></g><g class="y"><path class="ygrid crisp" transform="translate(0,309.22330708661417)" d="M109.4925634295713,0h486.57042869641293" style="stroke: rgb(255, 255, 255); stroke-opacity: 1; stroke-width: 1px;"/><path class="ygrid crisp" transform="translate(0,228.91330708661417)" d="M109.4925634295713,0h486.57042869641293" style="stroke: rgb(255, 255, 255); stroke-opacity: 1; stroke-width: 1px;"/><path class="ygrid crisp" transform="translate(0,148.59330708661415)" d="M109.4925634295713,0h486.57042869641293" style="stroke: rgb(255, 255, 255); stroke-opacity: 1; stroke-width: 1px;"/><path class="ygrid crisp" transform="translate(0,68.27330708661415)" d="M109.4925634295713,0h486.57042869641293" style="stroke: rgb(255, 255, 255); stroke-opacity: 1; stroke-width: 1px;"/></g></g><g class="zerolinelayer"/><path class="xlines-below"/><path class="ylines-below"/><g class="overlines-below"/><g class="xaxislayer-below"/><g class="yaxislayer-below"/><g class="overaxes-below"/><g class="plot" transform="translate(109.4925634295713,61.043307086614156)" clip-path="url(#clipa09b68xyplot)"><g class="scatterlayer mlayer"><g class="trace scatter trace1a17c8" style="stroke-miterlimit: 2; opacity: 1;"><g class="fills"/><g class="errorbars"/><g class="lines"/><g class="points"><path class="point" transform="translate(13.77,12.39)" d="M4,0A4,4 0 1,1 0,-4A4,4 0 0,1 4,0Z" style="opacity: 1; stroke-width: 0px; fill: rgb(0, 154, 250); fill-opacity: 1;"/><path class="point" transform="translate(23.14,19.1)" d="M4,0A4,4 0 1,1 0,-4A4,4 0 0,1 4,0Z" style="opacity: 1; stroke-width: 0px; fill: rgb(0, 154, 250); fill-opacity: 1;"/><path class="point" transform="translate(32.51,10.79)" d="M4,0A4,4 0 1,1 0,-4A4,4 0 0,1 4,0Z" style="opacity: 1; stroke-width: 0px; fill: rgb(0, 154, 250); fill-opacity: 1;"/><path class="point" transform="translate(41.87,23.25)" d="M4,0A4,4 0 1,1 0,-4A4,4 0 0,1 4,0Z" style="opacity: 1; stroke-width: 0px; fill: rgb(0, 154, 250); fill-opacity: 1;"/><path class="point" transform="translate(51.24,20.54)" d="M4,0A4,4 0 1,1 0,-4A4,4 0 0,1 4,0Z" style="opacity: 1; stroke-width: 0px; fill: rgb(0, 154, 250); fill-opacity: 1;"/><path class="point" transform="translate(60.61,25.98)" d="M4,0A4,4 0 1,1 0,-4A4,4 0 0,1 4,0Z" style="opacity: 1; stroke-width: 0px; fill: rgb(0, 154, 250); fill-opacity: 1;"/><path class="point" transform="translate(69.98,39.57)" d="M4,0A4,4 0 1,1 0,-4A4,4 0 0,1 4,0Z" style="opacity: 1; stroke-width: 0px; fill: rgb(0, 154, 250); fill-opacity: 1;"/><path class="point" transform="translate(79.35,50.61)" d="M4,0A4,4 0 1,1 0,-4A4,4 0 0,1 4,0Z" style="opacity: 1; stroke-width: 0px; fill: rgb(0, 154, 250); fill-opacity: 1;"/><path class="point" transform="translate(88.71,68.96)" d="M4,0A4,4 0 1,1 0,-4A4,4 0 0,1 4,0Z" style="opacity: 1; stroke-width: 0px; fill: rgb(0, 154, 250); fill-opacity: 1;"/><path class="point" transform="translate(98.08,89.96)" d="M4,0A4,4 0 1,1 0,-4A4,4 0 0,1 4,0Z" style="opacity: 1; stroke-width: 0px; fill: rgb(0, 154, 250); fill-opacity: 1;"/><path class="point" transform="translate(107.45,103.02)" d="M4,0A4,4 0 1,1 0,-4A4,4 0 0,1 4,0Z" style="opacity: 1; stroke-width: 0px; fill: rgb(0, 154, 250); fill-opacity: 1;"/><path class="point" transform="translate(116.82,122.4)" d="M4,0A4,4 0 1,1 0,-4A4,4 0 0,1 4,0Z" style="opacity: 1; stroke-width: 0px; fill: rgb(0, 154, 250); fill-opacity: 1;"/><path class="point" transform="translate(126.19,134.7)" d="M4,0A4,4 0 1,1 0,-4A4,4 0 0,1 4,0Z" style="opacity: 1; stroke-width: 0px; fill: rgb(0, 154, 250); fill-opacity: 1;"/><path class="point" transform="translate(135.55,151.07)" d="M4,0A4,4 0 1,1 0,-4A4,4 0 0,1 4,0Z" style="opacity: 1; stroke-width: 0px; fill: rgb(0, 154, 250); fill-opacity: 1;"/><path class="point" transform="translate(144.92,167.22)" d="M4,0A4,4 0 1,1 0,-4A4,4 0 0,1 4,0Z" style="opacity: 1; stroke-width: 0px; fill: rgb(0, 154, 250); fill-opacity: 1;"/><path class="point" transform="translate(154.29,176.6)" d="M4,0A4,4 0 1,1 0,-4A4,4 0 0,1 4,0Z" style="opacity: 1; stroke-width: 0px; fill: rgb(0, 154, 250); fill-opacity: 1;"/><path class="point" transform="translate(163.66,186.35)" d="M4,0A4,4 0 1,1 0,-4A4,4 0 0,1 4,0Z" style="opacity: 1; stroke-width: 0px; fill: rgb(0, 154, 250); fill-opacity: 1;"/><path class="point" transform="translate(173.03,197.23)" d="M4,0A4,4 0 1,1 0,-4A4,4 0 0,1 4,0Z" style="opacity: 1; stroke-width: 0px; fill: rgb(0, 154, 250); fill-opacity: 1;"/><path class="point" transform="translate(182.39,207.65)" d="M4,0A4,4 0 1,1 0,-4A4,4 0 0,1 4,0Z" style="opacity: 1; stroke-width: 0px; fill: rgb(0, 154, 250); fill-opacity: 1;"/><path class="point" transform="translate(191.76,216)" d="M4,0A4,4 0 1,1 0,-4A4,4 0 0,1 4,0Z" style="opacity: 1; stroke-width: 0px; fill: rgb(0, 154, 250); fill-opacity: 1;"/><path class="point" transform="translate(201.13,224.5)" d="M4,0A4,4 0 1,1 0,-4A4,4 0 0,1 4,0Z" style="opacity: 1; stroke-width: 0px; fill: rgb(0, 154, 250); fill-opacity: 1;"/><path class="point" transform="translate(210.5,229.3)" d="M4,0A4,4 0 1,1 0,-4A4,4 0 0,1 4,0Z" style="opacity: 1; stroke-width: 0px; fill: rgb(0, 154, 250); fill-opacity: 1;"/><path class="point" transform="translate(219.87,234.57)" d="M4,0A4,4 0 1,1 0,-4A4,4 0 0,1 4,0Z" style="opacity: 1; stroke-width: 0px; fill: rgb(0, 154, 250); fill-opacity: 1;"/><path class="point" transform="translate(229.23,237.97)" d="M4,0A4,4 0 1,1 0,-4A4,4 0 0,1 4,0Z" style="opacity: 1; stroke-width: 0px; fill: rgb(0, 154, 250); fill-opacity: 1;"/><path class="point" transform="translate(238.6,240.52)" d="M4,0A4,4 0 1,1 0,-4A4,4 0 0,1 4,0Z" style="opacity: 1; stroke-width: 0px; fill: rgb(0, 154, 250); fill-opacity: 1;"/><path class="point" transform="translate(247.97,242.66)" d="M4,0A4,4 0 1,1 0,-4A4,4 0 0,1 4,0Z" style="opacity: 1; stroke-width: 0px; fill: rgb(0, 154, 250); fill-opacity: 1;"/><path class="point" transform="translate(257.34,244.17)" d="M4,0A4,4 0 1,1 0,-4A4,4 0 0,1 4,0Z" style="opacity: 1; stroke-width: 0px; fill: rgb(0, 154, 250); fill-opacity: 1;"/><path class="point" transform="translate(266.71,245.2)" d="M4,0A4,4 0 1,1 0,-4A4,4 0 0,1 4,0Z" style="opacity: 1; stroke-width: 0px; fill: rgb(0, 154, 250); fill-opacity: 1;"/><path class="point" transform="translate(276.07,245.77)" d="M4,0A4,4 0 1,1 0,-4A4,4 0 0,1 4,0Z" style="opacity: 1; stroke-width: 0px; fill: rgb(0, 154, 250); fill-opacity: 1;"/><path class="point" transform="translate(285.44,246.49)" d="M4,0A4,4 0 1,1 0,-4A4,4 0 0,1 4,0Z" style="opacity: 1; stroke-width: 0px; fill: rgb(0, 154, 250); fill-opacity: 1;"/><path class="point" transform="translate(294.81,246.9)" d="M4,0A4,4 0 1,1 0,-4A4,4 0 0,1 4,0Z" style="opacity: 1; stroke-width: 0px; fill: rgb(0, 154, 250); fill-opacity: 1;"/><path class="point" transform="translate(304.18,247.18)" d="M4,0A4,4 0 1,1 0,-4A4,4 0 0,1 4,0Z" style="opacity: 1; stroke-width: 0px; fill: rgb(0, 154, 250); fill-opacity: 1;"/><path class="point" transform="translate(313.54,247.45)" d="M4,0A4,4 0 1,1 0,-4A4,4 0 0,1 4,0Z" style="opacity: 1; stroke-width: 0px; fill: rgb(0, 154, 250); fill-opacity: 1;"/><path class="point" transform="translate(322.91,247.62)" d="M4,0A4,4 0 1,1 0,-4A4,4 0 0,1 4,0Z" style="opacity: 1; stroke-width: 0px; fill: rgb(0, 154, 250); fill-opacity: 1;"/><path class="point" transform="translate(332.28,247.75)" d="M4,0A4,4 0 1,1 0,-4A4,4 0 0,1 4,0Z" style="opacity: 1; stroke-width: 0px; fill: rgb(0, 154, 250); fill-opacity: 1;"/><path class="point" transform="translate(341.65,247.85)" d="M4,0A4,4 0 1,1 0,-4A4,4 0 0,1 4,0Z" style="opacity: 1; stroke-width: 0px; fill: rgb(0, 154, 250); fill-opacity: 1;"/><path class="point" transform="translate(351.02,247.92)" d="M4,0A4,4 0 1,1 0,-4A4,4 0 0,1 4,0Z" style="opacity: 1; stroke-width: 0px; fill: rgb(0, 154, 250); fill-opacity: 1;"/><path class="point" transform="translate(360.38,247.97)" d="M4,0A4,4 0 1,1 0,-4A4,4 0 0,1 4,0Z" style="opacity: 1; stroke-width: 0px; fill: rgb(0, 154, 250); fill-opacity: 1;"/><path class="point" transform="translate(369.75,248.03)" d="M4,0A4,4 0 1,1 0,-4A4,4 0 0,1 4,0Z" style="opacity: 1; stroke-width: 0px; fill: rgb(0, 154, 250); fill-opacity: 1;"/><path class="point" transform="translate(379.12,248.06)" d="M4,0A4,4 0 1,1 0,-4A4,4 0 0,1 4,0Z" style="opacity: 1; stroke-width: 0px; fill: rgb(0, 154, 250); fill-opacity: 1;"/><path class="point" transform="translate(388.49,248.08)" d="M4,0A4,4 0 1,1 0,-4A4,4 0 0,1 4,0Z" style="opacity: 1; stroke-width: 0px; fill: rgb(0, 154, 250); fill-opacity: 1;"/><path class="point" transform="translate(397.86,248.1)" d="M4,0A4,4 0 1,1 0,-4A4,4 0 0,1 4,0Z" style="opacity: 1; stroke-width: 0px; fill: rgb(0, 154, 250); fill-opacity: 1;"/><path class="point" transform="translate(407.22,248.12)" d="M4,0A4,4 0 1,1 0,-4A4,4 0 0,1 4,0Z" style="opacity: 1; stroke-width: 0px; fill: rgb(0, 154, 250); fill-opacity: 1;"/><path class="point" transform="translate(416.59,248.13)" d="M4,0A4,4 0 1,1 0,-4A4,4 0 0,1 4,0Z" style="opacity: 1; stroke-width: 0px; fill: rgb(0, 154, 250); fill-opacity: 1;"/><path class="point" transform="translate(425.96,248.14)" d="M4,0A4,4 0 1,1 0,-4A4,4 0 0,1 4,0Z" style="opacity: 1; stroke-width: 0px; fill: rgb(0, 154, 250); fill-opacity: 1;"/><path class="point" transform="translate(435.33,248.15)" d="M4,0A4,4 0 1,1 0,-4A4,4 0 0,1 4,0Z" style="opacity: 1; stroke-width: 0px; fill: rgb(0, 154, 250); fill-opacity: 1;"/><path class="point" transform="translate(444.7,248.15)" d="M4,0A4,4 0 1,1 0,-4A4,4 0 0,1 4,0Z" style="opacity: 1; stroke-width: 0px; fill: rgb(0, 154, 250); fill-opacity: 1;"/><path class="point" transform="translate(454.06,248.16)" d="M4,0A4,4 0 1,1 0,-4A4,4 0 0,1 4,0Z" style="opacity: 1; stroke-width: 0px; fill: rgb(0, 154, 250); fill-opacity: 1;"/><path class="point" transform="translate(463.43,248.17)" d="M4,0A4,4 0 1,1 0,-4A4,4 0 0,1 4,0Z" style="opacity: 1; stroke-width: 0px; fill: rgb(0, 154, 250); fill-opacity: 1;"/><path class="point" transform="translate(472.8,248.17)" d="M4,0A4,4 0 1,1 0,-4A4,4 0 0,1 4,0Z" style="opacity: 1; stroke-width: 0px; fill: rgb(0, 154, 250); fill-opacity: 1;"/></g><g class="text"/></g><g class="trace scatter trace045c1f" style="stroke-miterlimit: 2; opacity: 1;"><g class="fills"/><g class="errorbars"/><g class="lines"/><g class="points"><path class="point" transform="translate(13.77,243.98)" d="M4,0A4,4 0 1,1 0,-4A4,4 0 0,1 4,0Z" style="opacity: 1; stroke-width: 0px; fill: rgb(240, 96, 115); fill-opacity: 1;"/><path class="point" transform="translate(23.14,242.21)" d="M4,0A4,4 0 1,1 0,-4A4,4 0 0,1 4,0Z" style="opacity: 1; stroke-width: 0px; fill: rgb(240, 96, 115); fill-opacity: 1;"/><path class="point" transform="translate(32.51,239.19)" d="M4,0A4,4 0 1,1 0,-4A4,4 0 0,1 4,0Z" style="opacity: 1; stroke-width: 0px; fill: rgb(240, 96, 115); fill-opacity: 1;"/><path class="point" transform="translate(41.87,236.13)" d="M4,0A4,4 0 1,1 0,-4A4,4 0 0,1 4,0Z" style="opacity: 1; stroke-width: 0px; fill: rgb(240, 96, 115); fill-opacity: 1;"/><path class="point" transform="translate(51.24,230.74)" d="M4,0A4,4 0 1,1 0,-4A4,4 0 0,1 4,0Z" style="opacity: 1; stroke-width: 0px; fill: rgb(240, 96, 115); fill-opacity: 1;"/><path class="point" transform="translate(60.61,222.85)" d="M4,0A4,4 0 1,1 0,-4A4,4 0 0,1 4,0Z" style="opacity: 1; stroke-width: 0px; fill: rgb(240, 96, 115); fill-opacity: 1;"/><path class="point" transform="translate(69.98,214.07)" d="M4,0A4,4 0 1,1 0,-4A4,4 0 0,1 4,0Z" style="opacity: 1; stroke-width: 0px; fill: rgb(240, 96, 115); fill-opacity: 1;"/><path class="point" transform="translate(79.35,200.51)" d="M4,0A4,4 0 1,1 0,-4A4,4 0 0,1 4,0Z" style="opacity: 1; stroke-width: 0px; fill: rgb(240, 96, 115); fill-opacity: 1;"/><path class="point" transform="translate(88.71,185.99)" d="M4,0A4,4 0 1,1 0,-4A4,4 0 0,1 4,0Z" style="opacity: 1; stroke-width: 0px; fill: rgb(240, 96, 115); fill-opacity: 1;"/><path class="point" transform="translate(98.08,170.73)" d="M4,0A4,4 0 1,1 0,-4A4,4 0 0,1 4,0Z" style="opacity: 1; stroke-width: 0px; fill: rgb(240, 96, 115); fill-opacity: 1;"/><path class="point" transform="translate(107.45,149.36)" d="M4,0A4,4 0 1,1 0,-4A4,4 0 0,1 4,0Z" style="opacity: 1; stroke-width: 0px; fill: rgb(240, 96, 115); fill-opacity: 1;"/><path class="point" transform="translate(116.82,139.08)" d="M4,0A4,4 0 1,1 0,-4A4,4 0 0,1 4,0Z" style="opacity: 1; stroke-width: 0px; fill: rgb(240, 96, 115); fill-opacity: 1;"/><path class="point" transform="translate(126.19,120.58)" d="M4,0A4,4 0 1,1 0,-4A4,4 0 0,1 4,0Z" style="opacity: 1; stroke-width: 0px; fill: rgb(240, 96, 115); fill-opacity: 1;"/><path class="point" transform="translate(135.55,109)" d="M4,0A4,4 0 1,1 0,-4A4,4 0 0,1 4,0Z" style="opacity: 1; stroke-width: 0px; fill: rgb(240, 96, 115); fill-opacity: 1;"/><path class="point" transform="translate(144.92,96)" d="M4,0A4,4 0 1,1 0,-4A4,4 0 0,1 4,0Z" style="opacity: 1; stroke-width: 0px; fill: rgb(240, 96, 115); fill-opacity: 1;"/><path class="point" transform="translate(154.29,94.22)" d="M4,0A4,4 0 1,1 0,-4A4,4 0 0,1 4,0Z" style="opacity: 1; stroke-width: 0px; fill: rgb(240, 96, 115); fill-opacity: 1;"/><path class="point" transform="translate(163.66,87.09)" d="M4,0A4,4 0 1,1 0,-4A4,4 0 0,1 4,0Z" style="opacity: 1; stroke-width: 0px; fill: rgb(240, 96, 115); fill-opacity: 1;"/><path class="point" transform="translate(173.03,75.86)" d="M4,0A4,4 0 1,1 0,-4A4,4 0 0,1 4,0Z" style="opacity: 1; stroke-width: 0px; fill: rgb(240, 96, 115); fill-opacity: 1;"/><path class="point" transform="translate(182.39,73.46)" d="M4,0A4,4 0 1,1 0,-4A4,4 0 0,1 4,0Z" style="opacity: 1; stroke-width: 0px; fill: rgb(240, 96, 115); fill-opacity: 1;"/><path class="point" transform="translate(191.76,60.59)" d="M4,0A4,4 0 1,1 0,-4A4,4 0 0,1 4,0Z" style="opacity: 1; stroke-width: 0px; fill: rgb(240, 96, 115); fill-opacity: 1;"/><path class="point" transform="translate(201.13,68.39)" d="M4,0A4,4 0 1,1 0,-4A4,4 0 0,1 4,0Z" style="opacity: 1; stroke-width: 0px; fill: rgb(240, 96, 115); fill-opacity: 1;"/><path class="point" transform="translate(210.5,58.82)" d="M4,0A4,4 0 1,1 0,-4A4,4 0 0,1 4,0Z" style="opacity: 1; stroke-width: 0px; fill: rgb(240, 96, 115); fill-opacity: 1;"/><path class="point" transform="translate(219.87,59.58)" d="M4,0A4,4 0 1,1 0,-4A4,4 0 0,1 4,0Z" style="opacity: 1; stroke-width: 0px; fill: rgb(240, 96, 115); fill-opacity: 1;"/><path class="point" transform="translate(229.23,53.11)" d="M4,0A4,4 0 1,1 0,-4A4,4 0 0,1 4,0Z" style="opacity: 1; stroke-width: 0px; fill: rgb(240, 96, 115); fill-opacity: 1;"/><path class="point" transform="translate(238.6,61.26)" d="M4,0A4,4 0 1,1 0,-4A4,4 0 0,1 4,0Z" style="opacity: 1; stroke-width: 0px; fill: rgb(240, 96, 115); fill-opacity: 1;"/><path class="point" transform="translate(247.97,61.51)" d="M4,0A4,4 0 1,1 0,-4A4,4 0 0,1 4,0Z" style="opacity: 1; stroke-width: 0px; fill: rgb(240, 96, 115); fill-opacity: 1;"/><path class="point" transform="translate(257.34,69.5)" d="M4,0A4,4 0 1,1 0,-4A4,4 0 0,1 4,0Z" style="opacity: 1; stroke-width: 0px; fill: rgb(240, 96, 115); fill-opacity: 1;"/><path class="point" transform="translate(266.71,63.46)" d="M4,0A4,4 0 1,1 0,-4A4,4 0 0,1 4,0Z" style="opacity: 1; stroke-width: 0px; fill: rgb(240, 96, 115); fill-opacity: 1;"/><path class="point" transform="translate(276.07,76.23)" d="M4,0A4,4 0 1,1 0,-4A4,4 0 0,1 4,0Z" style="opacity: 1; stroke-width: 0px; fill: rgb(240, 96, 115); fill-opacity: 1;"/><path class="point" transform="translate(285.44,72.11)" d="M4,0A4,4 0 1,1 0,-4A4,4 0 0,1 4,0Z" style="opacity: 1; stroke-width: 0px; fill: rgb(240, 96, 115); fill-opacity: 1;"/><path class="point" transform="translate(294.81,72.46)" d="M4,0A4,4 0 1,1 0,-4A4,4 0 0,1 4,0Z" style="opacity: 1; stroke-width: 0px; fill: rgb(240, 96, 115); fill-opacity: 1;"/><path class="point" transform="translate(304.18,75.21)" d="M4,0A4,4 0 1,1 0,-4A4,4 0 0,1 4,0Z" style="opacity: 1; stroke-width: 0px; fill: rgb(240, 96, 115); fill-opacity: 1;"/><path class="point" transform="translate(313.54,77.98)" d="M4,0A4,4 0 1,1 0,-4A4,4 0 0,1 4,0Z" style="opacity: 1; stroke-width: 0px; fill: rgb(240, 96, 115); fill-opacity: 1;"/><path class="point" transform="translate(322.91,80.79)" d="M4,0A4,4 0 1,1 0,-4A4,4 0 0,1 4,0Z" style="opacity: 1; stroke-width: 0px; fill: rgb(240, 96, 115); fill-opacity: 1;"/><path class="point" transform="translate(332.28,83.21)" d="M4,0A4,4 0 1,1 0,-4A4,4 0 0,1 4,0Z" style="opacity: 1; stroke-width: 0px; fill: rgb(240, 96, 115); fill-opacity: 1;"/><path class="point" transform="translate(341.65,90.19)" d="M4,0A4,4 0 1,1 0,-4A4,4 0 0,1 4,0Z" style="opacity: 1; stroke-width: 0px; fill: rgb(240, 96, 115); fill-opacity: 1;"/><path class="point" transform="translate(351.02,86.57)" d="M4,0A4,4 0 1,1 0,-4A4,4 0 0,1 4,0Z" style="opacity: 1; stroke-width: 0px; fill: rgb(240, 96, 115); fill-opacity: 1;"/><path class="point" transform="translate(360.38,98.03)" d="M4,0A4,4 0 1,1 0,-4A4,4 0 0,1 4,0Z" style="opacity: 1; stroke-width: 0px; fill: rgb(240, 96, 115); fill-opacity: 1;"/><path class="point" transform="translate(369.75,96.09)" d="M4,0A4,4 0 1,1 0,-4A4,4 0 0,1 4,0Z" style="opacity: 1; stroke-width: 0px; fill: rgb(240, 96, 115); fill-opacity: 1;"/><path class="point" transform="translate(379.12,104.76)" d="M4,0A4,4 0 1,1 0,-4A4,4 0 0,1 4,0Z" style="opacity: 1; stroke-width: 0px; fill: rgb(240, 96, 115); fill-opacity: 1;"/><path class="point" transform="translate(388.49,105.12)" d="M4,0A4,4 0 1,1 0,-4A4,4 0 0,1 4,0Z" style="opacity: 1; stroke-width: 0px; fill: rgb(240, 96, 115); fill-opacity: 1;"/><path class="point" transform="translate(397.86,107.58)" d="M4,0A4,4 0 1,1 0,-4A4,4 0 0,1 4,0Z" style="opacity: 1; stroke-width: 0px; fill: rgb(240, 96, 115); fill-opacity: 1;"/><path class="point" transform="translate(407.22,113.31)" d="M4,0A4,4 0 1,1 0,-4A4,4 0 0,1 4,0Z" style="opacity: 1; stroke-width: 0px; fill: rgb(240, 96, 115); fill-opacity: 1;"/><path class="point" transform="translate(416.59,107.98)" d="M4,0A4,4 0 1,1 0,-4A4,4 0 0,1 4,0Z" style="opacity: 1; stroke-width: 0px; fill: rgb(240, 96, 115); fill-opacity: 1;"/><path class="point" transform="translate(425.96,118.98)" d="M4,0A4,4 0 1,1 0,-4A4,4 0 0,1 4,0Z" style="opacity: 1; stroke-width: 0px; fill: rgb(240, 96, 115); fill-opacity: 1;"/><path class="point" transform="translate(435.33,121.43)" d="M4,0A4,4 0 1,1 0,-4A4,4 0 0,1 4,0Z" style="opacity: 1; stroke-width: 0px; fill: rgb(240, 96, 115); fill-opacity: 1;"/><path class="point" transform="translate(444.7,121.96)" d="M4,0A4,4 0 1,1 0,-4A4,4 0 0,1 4,0Z" style="opacity: 1; stroke-width: 0px; fill: rgb(240, 96, 115); fill-opacity: 1;"/><path class="point" transform="translate(454.06,126.49)" d="M4,0A4,4 0 1,1 0,-4A4,4 0 0,1 4,0Z" style="opacity: 1; stroke-width: 0px; fill: rgb(240, 96, 115); fill-opacity: 1;"/><path class="point" transform="translate(463.43,124.6)" d="M4,0A4,4 0 1,1 0,-4A4,4 0 0,1 4,0Z" style="opacity: 1; stroke-width: 0px; fill: rgb(240, 96, 115); fill-opacity: 1;"/><path class="point" transform="translate(472.8,128.69)" d="M4,0A4,4 0 1,1 0,-4A4,4 0 0,1 4,0Z" style="opacity: 1; stroke-width: 0px; fill: rgb(240, 96, 115); fill-opacity: 1;"/></g><g class="text"/></g><g class="trace scatter tracea7184b" style="stroke-miterlimit: 2; opacity: 1;"><g class="fills"/><g class="errorbars"/><g class="lines"/><g class="points"><path class="point" transform="translate(13.77,248.18)" d="M4,0A4,4 0 1,1 0,-4A4,4 0 0,1 4,0Z" style="opacity: 1; stroke-width: 0px; fill: rgb(227, 111, 71); fill-opacity: 1;"/><path class="point" transform="translate(23.14,248.13)" d="M4,0A4,4 0 1,1 0,-4A4,4 0 0,1 4,0Z" style="opacity: 1; stroke-width: 0px; fill: rgb(227, 111, 71); fill-opacity: 1;"/><path class="point" transform="translate(32.51,248.06)" d="M4,0A4,4 0 1,1 0,-4A4,4 0 0,1 4,0Z" style="opacity: 1; stroke-width: 0px; fill: rgb(227, 111, 71); fill-opacity: 1;"/><path class="point" transform="translate(41.87,247.96)" d="M4,0A4,4 0 1,1 0,-4A4,4 0 0,1 4,0Z" style="opacity: 1; stroke-width: 0px; fill: rgb(227, 111, 71); fill-opacity: 1;"/><path class="point" transform="translate(51.24,247.78)" d="M4,0A4,4 0 1,1 0,-4A4,4 0 0,1 4,0Z" style="opacity: 1; stroke-width: 0px; fill: rgb(227, 111, 71); fill-opacity: 1;"/><path class="point" transform="translate(60.61,247.56)" d="M4,0A4,4 0 1,1 0,-4A4,4 0 0,1 4,0Z" style="opacity: 1; stroke-width: 0px; fill: rgb(227, 111, 71); fill-opacity: 1;"/><path class="point" transform="translate(69.98,247.26)" d="M4,0A4,4 0 1,1 0,-4A4,4 0 0,1 4,0Z" style="opacity: 1; stroke-width: 0px; fill: rgb(227, 111, 71); fill-opacity: 1;"/><path class="point" transform="translate(79.35,246.8)" d="M4,0A4,4 0 1,1 0,-4A4,4 0 0,1 4,0Z" style="opacity: 1; stroke-width: 0px; fill: rgb(227, 111, 71); fill-opacity: 1;"/><path class="point" transform="translate(88.71,246.28)" d="M4,0A4,4 0 1,1 0,-4A4,4 0 0,1 4,0Z" style="opacity: 1; stroke-width: 0px; fill: rgb(227, 111, 71); fill-opacity: 1;"/><path class="point" transform="translate(98.08,245.6)" d="M4,0A4,4 0 1,1 0,-4A4,4 0 0,1 4,0Z" style="opacity: 1; stroke-width: 0px; fill: rgb(227, 111, 71); fill-opacity: 1;"/><path class="point" transform="translate(107.45,244.63)" d="M4,0A4,4 0 1,1 0,-4A4,4 0 0,1 4,0Z" style="opacity: 1; stroke-width: 0px; fill: rgb(227, 111, 71); fill-opacity: 1;"/><path class="point" transform="translate(116.82,243.47)" d="M4,0A4,4 0 1,1 0,-4A4,4 0 0,1 4,0Z" style="opacity: 1; stroke-width: 0px; fill: rgb(227, 111, 71); fill-opacity: 1;"/><path class="point" transform="translate(126.19,242.05)" d="M4,0A4,4 0 1,1 0,-4A4,4 0 0,1 4,0Z" style="opacity: 1; stroke-width: 0px; fill: rgb(227, 111, 71); fill-opacity: 1;"/><path class="point" transform="translate(135.55,240.6)" d="M4,0A4,4 0 1,1 0,-4A4,4 0 0,1 4,0Z" style="opacity: 1; stroke-width: 0px; fill: rgb(227, 111, 71); fill-opacity: 1;"/><path class="point" transform="translate(144.92,239.08)" d="M4,0A4,4 0 1,1 0,-4A4,4 0 0,1 4,0Z" style="opacity: 1; stroke-width: 0px; fill: rgb(227, 111, 71); fill-opacity: 1;"/><path class="point" transform="translate(154.29,237.2)" d="M4,0A4,4 0 1,1 0,-4A4,4 0 0,1 4,0Z" style="opacity: 1; stroke-width: 0px; fill: rgb(227, 111, 71); fill-opacity: 1;"/><path class="point" transform="translate(163.66,235.25)" d="M4,0A4,4 0 1,1 0,-4A4,4 0 0,1 4,0Z" style="opacity: 1; stroke-width: 0px; fill: rgb(227, 111, 71); fill-opacity: 1;"/><path class="point" transform="translate(173.03,233.52)" d="M4,0A4,4 0 1,1 0,-4A4,4 0 0,1 4,0Z" style="opacity: 1; stroke-width: 0px; fill: rgb(227, 111, 71); fill-opacity: 1;"/><path class="point" transform="translate(182.39,231.81)" d="M4,0A4,4 0 1,1 0,-4A4,4 0 0,1 4,0Z" style="opacity: 1; stroke-width: 0px; fill: rgb(227, 111, 71); fill-opacity: 1;"/><path class="point" transform="translate(191.76,229.56)" d="M4,0A4,4 0 1,1 0,-4A4,4 0 0,1 4,0Z" style="opacity: 1; stroke-width: 0px; fill: rgb(227, 111, 71); fill-opacity: 1;"/><path class="point" transform="translate(201.13,227.19)" d="M4,0A4,4 0 1,1 0,-4A4,4 0 0,1 4,0Z" style="opacity: 1; stroke-width: 0px; fill: rgb(227, 111, 71); fill-opacity: 1;"/><path class="point" transform="translate(210.5,224.1)" d="M4,0A4,4 0 1,1 0,-4A4,4 0 0,1 4,0Z" style="opacity: 1; stroke-width: 0px; fill: rgb(227, 111, 71); fill-opacity: 1;"/><path class="point" transform="translate(219.87,221.15)" d="M4,0A4,4 0 1,1 0,-4A4,4 0 0,1 4,0Z" style="opacity: 1; stroke-width: 0px; fill: rgb(227, 111, 71); fill-opacity: 1;"/><path class="point" transform="translate(229.23,219.36)" d="M4,0A4,4 0 1,1 0,-4A4,4 0 0,1 4,0Z" style="opacity: 1; stroke-width: 0px; fill: rgb(227, 111, 71); fill-opacity: 1;"/><path class="point" transform="translate(238.6,216.08)" d="M4,0A4,4 0 1,1 0,-4A4,4 0 0,1 4,0Z" style="opacity: 1; stroke-width: 0px; fill: rgb(227, 111, 71); fill-opacity: 1;"/><path class="point" transform="translate(247.97,214.28)" d="M4,0A4,4 0 1,1 0,-4A4,4 0 0,1 4,0Z" style="opacity: 1; stroke-width: 0px; fill: rgb(227, 111, 71); fill-opacity: 1;"/><path class="point" transform="translate(257.34,210.67)" d="M4,0A4,4 0 1,1 0,-4A4,4 0 0,1 4,0Z" style="opacity: 1; stroke-width: 0px; fill: rgb(227, 111, 71); fill-opacity: 1;"/><path class="point" transform="translate(266.71,209.38)" d="M4,0A4,4 0 1,1 0,-4A4,4 0 0,1 4,0Z" style="opacity: 1; stroke-width: 0px; fill: rgb(227, 111, 71); fill-opacity: 1;"/><path class="point" transform="translate(276.07,206.91)" d="M4,0A4,4 0 1,1 0,-4A4,4 0 0,1 4,0Z" style="opacity: 1; stroke-width: 0px; fill: rgb(227, 111, 71); fill-opacity: 1;"/><path class="point" transform="translate(285.44,204.61)" d="M4,0A4,4 0 1,1 0,-4A4,4 0 0,1 4,0Z" style="opacity: 1; stroke-width: 0px; fill: rgb(227, 111, 71); fill-opacity: 1;"/><path class="point" transform="translate(294.81,202.44)" d="M4,0A4,4 0 1,1 0,-4A4,4 0 0,1 4,0Z" style="opacity: 1; stroke-width: 0px; fill: rgb(227, 111, 71); fill-opacity: 1;"/><path class="point" transform="translate(304.18,200.38)" d="M4,0A4,4 0 1,1 0,-4A4,4 0 0,1 4,0Z" style="opacity: 1; stroke-width: 0px; fill: rgb(227, 111, 71); fill-opacity: 1;"/><path class="point" transform="translate(313.54,198.6)" d="M4,0A4,4 0 1,1 0,-4A4,4 0 0,1 4,0Z" style="opacity: 1; stroke-width: 0px; fill: rgb(227, 111, 71); fill-opacity: 1;"/><path class="point" transform="translate(322.91,194.57)" d="M4,0A4,4 0 1,1 0,-4A4,4 0 0,1 4,0Z" style="opacity: 1; stroke-width: 0px; fill: rgb(227, 111, 71); fill-opacity: 1;"/><path class="point" transform="translate(332.28,193.78)" d="M4,0A4,4 0 1,1 0,-4A4,4 0 0,1 4,0Z" style="opacity: 1; stroke-width: 0px; fill: rgb(227, 111, 71); fill-opacity: 1;"/><path class="point" transform="translate(341.65,191.63)" d="M4,0A4,4 0 1,1 0,-4A4,4 0 0,1 4,0Z" style="opacity: 1; stroke-width: 0px; fill: rgb(227, 111, 71); fill-opacity: 1;"/><path class="point" transform="translate(351.02,189.35)" d="M4,0A4,4 0 1,1 0,-4A4,4 0 0,1 4,0Z" style="opacity: 1; stroke-width: 0px; fill: rgb(227, 111, 71); fill-opacity: 1;"/><path class="point" transform="translate(360.38,186.92)" d="M4,0A4,4 0 1,1 0,-4A4,4 0 0,1 4,0Z" style="opacity: 1; stroke-width: 0px; fill: rgb(227, 111, 71); fill-opacity: 1;"/><path class="point" transform="translate(369.75,185.48)" d="M4,0A4,4 0 1,1 0,-4A4,4 0 0,1 4,0Z" style="opacity: 1; stroke-width: 0px; fill: rgb(227, 111, 71); fill-opacity: 1;"/><path class="point" transform="translate(379.12,181.94)" d="M4,0A4,4 0 1,1 0,-4A4,4 0 0,1 4,0Z" style="opacity: 1; stroke-width: 0px; fill: rgb(227, 111, 71); fill-opacity: 1;"/><path class="point" transform="translate(388.49,177.82)" d="M4,0A4,4 0 1,1 0,-4A4,4 0 0,1 4,0Z" style="opacity: 1; stroke-width: 0px; fill: rgb(227, 111, 71); fill-opacity: 1;"/><path class="point" transform="translate(397.86,177.34)" d="M4,0A4,4 0 1,1 0,-4A4,4 0 0,1 4,0Z" style="opacity: 1; stroke-width: 0px; fill: rgb(227, 111, 71); fill-opacity: 1;"/><path class="point" transform="translate(407.22,178.27)" d="M4,0A4,4 0 1,1 0,-4A4,4 0 0,1 4,0Z" style="opacity: 1; stroke-width: 0px; fill: rgb(227, 111, 71); fill-opacity: 1;"/><path class="point" transform="translate(416.59,173.78)" d="M4,0A4,4 0 1,1 0,-4A4,4 0 0,1 4,0Z" style="opacity: 1; stroke-width: 0px; fill: rgb(227, 111, 71); fill-opacity: 1;"/><path class="point" transform="translate(425.96,171.35)" d="M4,0A4,4 0 1,1 0,-4A4,4 0 0,1 4,0Z" style="opacity: 1; stroke-width: 0px; fill: rgb(227, 111, 71); fill-opacity: 1;"/><path class="point" transform="translate(435.33,173.13)" d="M4,0A4,4 0 1,1 0,-4A4,4 0 0,1 4,0Z" style="opacity: 1; stroke-width: 0px; fill: rgb(227, 111, 71); fill-opacity: 1;"/><path class="point" transform="translate(444.7,171.84)" d="M4,0A4,4 0 1,1 0,-4A4,4 0 0,1 4,0Z" style="opacity: 1; stroke-width: 0px; fill: rgb(227, 111, 71); fill-opacity: 1;"/><path class="point" transform="translate(454.06,167.54)" d="M4,0A4,4 0 1,1 0,-4A4,4 0 0,1 4,0Z" style="opacity: 1; stroke-width: 0px; fill: rgb(227, 111, 71); fill-opacity: 1;"/><path class="point" transform="translate(463.43,167.37)" d="M4,0A4,4 0 1,1 0,-4A4,4 0 0,1 4,0Z" style="opacity: 1; stroke-width: 0px; fill: rgb(227, 111, 71); fill-opacity: 1;"/><path class="point" transform="translate(472.8,163.68)" d="M4,0A4,4 0 1,1 0,-4A4,4 0 0,1 4,0Z" style="opacity: 1; stroke-width: 0px; fill: rgb(227, 111, 71); fill-opacity: 1;"/></g><g class="text"/></g><g class="trace scatter trace85321c" style="stroke-miterlimit: 2; opacity: 1;"><g class="fills"/><g class="errorbars"/><g class="lines"/><g class="points"><path class="point" transform="translate(13.77,248.18)" d="M4,0A4,4 0 1,1 0,-4A4,4 0 0,1 4,0Z" style="opacity: 1; stroke-width: 0px; fill: rgb(195, 113, 210); fill-opacity: 1;"/><path class="point" transform="translate(23.14,248.16)" d="M4,0A4,4 0 1,1 0,-4A4,4 0 0,1 4,0Z" style="opacity: 1; stroke-width: 0px; fill: rgb(195, 113, 210); fill-opacity: 1;"/><path class="point" transform="translate(32.51,248.12)" d="M4,0A4,4 0 1,1 0,-4A4,4 0 0,1 4,0Z" style="opacity: 1; stroke-width: 0px; fill: rgb(195, 113, 210); fill-opacity: 1;"/><path class="point" transform="translate(41.87,248.07)" d="M4,0A4,4 0 1,1 0,-4A4,4 0 0,1 4,0Z" style="opacity: 1; stroke-width: 0px; fill: rgb(195, 113, 210); fill-opacity: 1;"/><path class="point" transform="translate(51.24,247.99)" d="M4,0A4,4 0 1,1 0,-4A4,4 0 0,1 4,0Z" style="opacity: 1; stroke-width: 0px; fill: rgb(195, 113, 210); fill-opacity: 1;"/><path class="point" transform="translate(60.61,247.88)" d="M4,0A4,4 0 1,1 0,-4A4,4 0 0,1 4,0Z" style="opacity: 1; stroke-width: 0px; fill: rgb(195, 113, 210); fill-opacity: 1;"/><path class="point" transform="translate(69.98,247.72)" d="M4,0A4,4 0 1,1 0,-4A4,4 0 0,1 4,0Z" style="opacity: 1; stroke-width: 0px; fill: rgb(195, 113, 210); fill-opacity: 1;"/><path class="point" transform="translate(79.35,247.5)" d="M4,0A4,4 0 1,1 0,-4A4,4 0 0,1 4,0Z" style="opacity: 1; stroke-width: 0px; fill: rgb(195, 113, 210); fill-opacity: 1;"/><path class="point" transform="translate(88.71,247.26)" d="M4,0A4,4 0 1,1 0,-4A4,4 0 0,1 4,0Z" style="opacity: 1; stroke-width: 0px; fill: rgb(195, 113, 210); fill-opacity: 1;"/><path class="point" transform="translate(98.08,246.79)" d="M4,0A4,4 0 1,1 0,-4A4,4 0 0,1 4,0Z" style="opacity: 1; stroke-width: 0px; fill: rgb(195, 113, 210); fill-opacity: 1;"/><path class="point" transform="translate(107.45,246.41)" d="M4,0A4,4 0 1,1 0,-4A4,4 0 0,1 4,0Z" style="opacity: 1; stroke-width: 0px; fill: rgb(195, 113, 210); fill-opacity: 1;"/><path class="point" transform="translate(116.82,245.85)" d="M4,0A4,4 0 1,1 0,-4A4,4 0 0,1 4,0Z" style="opacity: 1; stroke-width: 0px; fill: rgb(195, 113, 210); fill-opacity: 1;"/><path class="point" transform="translate(126.19,245.26)" d="M4,0A4,4 0 1,1 0,-4A4,4 0 0,1 4,0Z" style="opacity: 1; stroke-width: 0px; fill: rgb(195, 113, 210); fill-opacity: 1;"/><path class="point" transform="translate(135.55,244.47)" d="M4,0A4,4 0 1,1 0,-4A4,4 0 0,1 4,0Z" style="opacity: 1; stroke-width: 0px; fill: rgb(195, 113, 210); fill-opacity: 1;"/><path class="point" transform="translate(144.92,243.89)" d="M4,0A4,4 0 1,1 0,-4A4,4 0 0,1 4,0Z" style="opacity: 1; stroke-width: 0px; fill: rgb(195, 113, 210); fill-opacity: 1;"/><path class="point" transform="translate(154.29,242.86)" d="M4,0A4,4 0 1,1 0,-4A4,4 0 0,1 4,0Z" style="opacity: 1; stroke-width: 0px; fill: rgb(195, 113, 210); fill-opacity: 1;"/><path class="point" transform="translate(163.66,241.72)" d="M4,0A4,4 0 1,1 0,-4A4,4 0 0,1 4,0Z" style="opacity: 1; stroke-width: 0px; fill: rgb(195, 113, 210); fill-opacity: 1;"/><path class="point" transform="translate(173.03,240.65)" d="M4,0A4,4 0 1,1 0,-4A4,4 0 0,1 4,0Z" style="opacity: 1; stroke-width: 0px; fill: rgb(195, 113, 210); fill-opacity: 1;"/><path class="point" transform="translate(182.39,239.95)" d="M4,0A4,4 0 1,1 0,-4A4,4 0 0,1 4,0Z" style="opacity: 1; stroke-width: 0px; fill: rgb(195, 113, 210); fill-opacity: 1;"/><path class="point" transform="translate(191.76,238.98)" d="M4,0A4,4 0 1,1 0,-4A4,4 0 0,1 4,0Z" style="opacity: 1; stroke-width: 0px; fill: rgb(195, 113, 210); fill-opacity: 1;"/><path class="point" transform="translate(201.13,237.37)" d="M4,0A4,4 0 1,1 0,-4A4,4 0 0,1 4,0Z" style="opacity: 1; stroke-width: 0px; fill: rgb(195, 113, 210); fill-opacity: 1;"/><path class="point" transform="translate(210.5,236.43)" d="M4,0A4,4 0 1,1 0,-4A4,4 0 0,1 4,0Z" style="opacity: 1; stroke-width: 0px; fill: rgb(195, 113, 210); fill-opacity: 1;"/><path class="point" transform="translate(219.87,235.07)" d="M4,0A4,4 0 1,1 0,-4A4,4 0 0,1 4,0Z" style="opacity: 1; stroke-width: 0px; fill: rgb(195, 113, 210); fill-opacity: 1;"/><path class="point" transform="translate(229.23,233.77)" d="M4,0A4,4 0 1,1 0,-4A4,4 0 0,1 4,0Z" style="opacity: 1; stroke-width: 0px; fill: rgb(195, 113, 210); fill-opacity: 1;"/><path class="point" transform="translate(238.6,232.11)" d="M4,0A4,4 0 1,1 0,-4A4,4 0 0,1 4,0Z" style="opacity: 1; stroke-width: 0px; fill: rgb(195, 113, 210); fill-opacity: 1;"/><path class="point" transform="translate(247.97,230.99)" d="M4,0A4,4 0 1,1 0,-4A4,4 0 0,1 4,0Z" style="opacity: 1; stroke-width: 0px; fill: rgb(195, 113, 210); fill-opacity: 1;"/><path class="point" transform="translate(257.34,229.16)" d="M4,0A4,4 0 1,1 0,-4A4,4 0 0,1 4,0Z" style="opacity: 1; stroke-width: 0px; fill: rgb(195, 113, 210); fill-opacity: 1;"/><path class="point" transform="translate(266.71,228.88)" d="M4,0A4,4 0 1,1 0,-4A4,4 0 0,1 4,0Z" style="opacity: 1; stroke-width: 0px; fill: rgb(195, 113, 210); fill-opacity: 1;"/><path class="point" transform="translate(276.07,227.81)" d="M4,0A4,4 0 1,1 0,-4A4,4 0 0,1 4,0Z" style="opacity: 1; stroke-width: 0px; fill: rgb(195, 113, 210); fill-opacity: 1;"/><path class="point" transform="translate(285.44,225.87)" d="M4,0A4,4 0 1,1 0,-4A4,4 0 0,1 4,0Z" style="opacity: 1; stroke-width: 0px; fill: rgb(195, 113, 210); fill-opacity: 1;"/><path class="point" transform="translate(294.81,224.26)" d="M4,0A4,4 0 1,1 0,-4A4,4 0 0,1 4,0Z" style="opacity: 1; stroke-width: 0px; fill: rgb(195, 113, 210); fill-opacity: 1;"/><path class="point" transform="translate(304.18,224.41)" d="M4,0A4,4 0 1,1 0,-4A4,4 0 0,1 4,0Z" style="opacity: 1; stroke-width: 0px; fill: rgb(195, 113, 210); fill-opacity: 1;"/><path class="point" transform="translate(313.54,222.76)" d="M4,0A4,4 0 1,1 0,-4A4,4 0 0,1 4,0Z" style="opacity: 1; stroke-width: 0px; fill: rgb(195, 113, 210); fill-opacity: 1;"/><path class="point" transform="translate(322.91,222.29)" d="M4,0A4,4 0 1,1 0,-4A4,4 0 0,1 4,0Z" style="opacity: 1; stroke-width: 0px; fill: rgb(195, 113, 210); fill-opacity: 1;"/><path class="point" transform="translate(332.28,220.98)" d="M4,0A4,4 0 1,1 0,-4A4,4 0 0,1 4,0Z" style="opacity: 1; stroke-width: 0px; fill: rgb(195, 113, 210); fill-opacity: 1;"/><path class="point" transform="translate(341.65,218.45)" d="M4,0A4,4 0 1,1 0,-4A4,4 0 0,1 4,0Z" style="opacity: 1; stroke-width: 0px; fill: rgb(195, 113, 210); fill-opacity: 1;"/><path class="point" transform="translate(351.02,217.66)" d="M4,0A4,4 0 1,1 0,-4A4,4 0 0,1 4,0Z" style="opacity: 1; stroke-width: 0px; fill: rgb(195, 113, 210); fill-opacity: 1;"/><path class="point" transform="translate(360.38,217.55)" d="M4,0A4,4 0 1,1 0,-4A4,4 0 0,1 4,0Z" style="opacity: 1; stroke-width: 0px; fill: rgb(195, 113, 210); fill-opacity: 1;"/><path class="point" transform="translate(369.75,217.23)" d="M4,0A4,4 0 1,1 0,-4A4,4 0 0,1 4,0Z" style="opacity: 1; stroke-width: 0px; fill: rgb(195, 113, 210); fill-opacity: 1;"/><path class="point" transform="translate(379.12,215.67)" d="M4,0A4,4 0 1,1 0,-4A4,4 0 0,1 4,0Z" style="opacity: 1; stroke-width: 0px; fill: rgb(195, 113, 210); fill-opacity: 1;"/><path class="point" transform="translate(388.49,213.41)" d="M4,0A4,4 0 1,1 0,-4A4,4 0 0,1 4,0Z" style="opacity: 1; stroke-width: 0px; fill: rgb(195, 113, 210); fill-opacity: 1;"/><path class="point" transform="translate(397.86,214.13)" d="M4,0A4,4 0 1,1 0,-4A4,4 0 0,1 4,0Z" style="opacity: 1; stroke-width: 0px; fill: rgb(195, 113, 210); fill-opacity: 1;"/><path class="point" transform="translate(407.22,213.35)" d="M4,0A4,4 0 1,1 0,-4A4,4 0 0,1 4,0Z" style="opacity: 1; stroke-width: 0px; fill: rgb(195, 113, 210); fill-opacity: 1;"/><path class="point" transform="translate(416.59,211.28)" d="M4,0A4,4 0 1,1 0,-4A4,4 0 0,1 4,0Z" style="opacity: 1; stroke-width: 0px; fill: rgb(195, 113, 210); fill-opacity: 1;"/><path class="point" transform="translate(425.96,210.98)" d="M4,0A4,4 0 1,1 0,-4A4,4 0 0,1 4,0Z" style="opacity: 1; stroke-width: 0px; fill: rgb(195, 113, 210); fill-opacity: 1;"/><path class="point" transform="translate(435.33,209.68)" d="M4,0A4,4 0 1,1 0,-4A4,4 0 0,1 4,0Z" style="opacity: 1; stroke-width: 0px; fill: rgb(195, 113, 210); fill-opacity: 1;"/><path class="point" transform="translate(444.7,208.66)" d="M4,0A4,4 0 1,1 0,-4A4,4 0 0,1 4,0Z" style="opacity: 1; stroke-width: 0px; fill: rgb(195, 113, 210); fill-opacity: 1;"/><path class="point" transform="translate(454.06,206.95)" d="M4,0A4,4 0 1,1 0,-4A4,4 0 0,1 4,0Z" style="opacity: 1; stroke-width: 0px; fill: rgb(195, 113, 210); fill-opacity: 1;"/><path class="point" transform="translate(463.43,207.16)" d="M4,0A4,4 0 1,1 0,-4A4,4 0 0,1 4,0Z" style="opacity: 1; stroke-width: 0px; fill: rgb(195, 113, 210); fill-opacity: 1;"/><path class="point" transform="translate(472.8,206.88)" d="M4,0A4,4 0 1,1 0,-4A4,4 0 0,1 4,0Z" style="opacity: 1; stroke-width: 0px; fill: rgb(195, 113, 210); fill-opacity: 1;"/></g><g class="text"/></g><g class="trace scatter trace600d03" style="stroke-miterlimit: 2; opacity: 1;"><g class="fills"/><g class="errorbars"/><g class="lines"><path class="js-line" d="M13.77,7.23L24.1,9.1L32.4,11.17L43.04,14.84L56.22,21.56L72.07,34.18L90.96,57.98L113.33,99.45L140.25,157.34L168.58,204.36L199.77,231.02L226.8,240.81L254.52,245.05L282.18,246.81L310.77,247.58L401.93,248.13L434.78,248.16L472.8,248.17" style="vector-effect: non-scaling-stroke; fill: none; stroke: rgb(0, 154, 250); stroke-opacity: 1; stroke-width: 2px; opacity: 1;"/></g><g class="points"/><g class="text"/></g><g class="trace scatter trace95c4b6" style="stroke-miterlimit: 2; opacity: 1;"><g class="fills"/><g class="errorbars"/><g class="lines"><path class="js-line" d="M13.77,244.17L24.1,242.38L32.4,240.4L43.04,236.9L56.22,230.49L72.07,218.47L90.96,195.92L113.33,157.04L140.25,104.36L168.58,65.04L199.77,48.28L226.8,47.42L254.52,52.22L310.77,67.11L340.05,75.29L401.93,91.78L434.78,99.97L472.8,108.92" style="vector-effect: non-scaling-stroke; fill: none; stroke: rgb(240, 96, 115); stroke-opacity: 1; stroke-width: 2px; opacity: 1;"/></g><g class="points"/><g class="text"/></g><g class="trace scatter traceb16799" style="stroke-miterlimit: 2; opacity: 1;"><g class="fills"/><g class="errorbars"/><g class="lines"><path class="js-line" d="M13.77,248.18L56.22,247.54L72.07,246.93L90.96,245.69L113.33,243.09L140.25,237.88L168.58,230.18L310.77,184.89L340.05,176.38L401.93,159.67L434.78,151.46L472.8,142.49" style="vector-effect: non-scaling-stroke; fill: none; stroke: rgb(227, 111, 71); stroke-opacity: 1; stroke-width: 2px; opacity: 1;"/></g><g class="points"/><g class="text"/></g><g class="trace scatter trace4ce6a5" style="stroke-miterlimit: 2; opacity: 1;"><g class="fills"/><g class="errorbars"/><g class="lines"><path class="js-line" d="M13.77,248.18L472.8,248.18" style="vector-effect: non-scaling-stroke; fill: none; stroke: rgb(195, 113, 210); stroke-opacity: 1; stroke-width: 2px; opacity: 1;"/></g><g class="points"/><g class="text"/></g></g></g><g class="overplot"/><path class="xlines-above crisp" d="M108.4925634295713,316.9566929133858H596.0629921259842" style="fill: none; stroke-width: 1px; stroke: rgb(51, 51, 51); stroke-opacity: 1;"/><path class="ylines-above crisp" d="M108.9925634295713,61.043307086614156V316.4566929133858" style="fill: none; stroke-width: 1px; stroke: rgb(51, 51, 51); stroke-opacity: 1;"/><g class="overlines-above"/><g class="xaxislayer-above"><path class="xtick ticks crisp" d="M0,317.4566929133858v5" transform="translate(123.2625634295713,0)" style="stroke: rgb(51, 51, 51); stroke-opacity: 1; stroke-width: 1px;"/><path class="xtick ticks crisp" d="M0,317.4566929133858v5" transform="translate(215.0725634295713,0)" style="stroke: rgb(51, 51, 51); stroke-opacity: 1; stroke-width: 1px;"/><path class="xtick ticks crisp" d="M0,317.4566929133858v5" transform="translate(306.8725634295713,0)" style="stroke: rgb(51, 51, 51); stroke-opacity: 1; stroke-width: 1px;"/><path class="xtick ticks crisp" d="M0,317.4566929133858v5" transform="translate(398.6825634295713,0)" style="stroke: rgb(51, 51, 51); stroke-opacity: 1; stroke-width: 1px;"/><path class="xtick ticks crisp" d="M0,317.4566929133858v5" transform="translate(490.4825634295713,0)" style="stroke: rgb(51, 51, 51); stroke-opacity: 1; stroke-width: 1px;"/><path class="xtick ticks crisp" d="M0,317.4566929133858v5" transform="translate(582.2925634295714,0)" style="stroke: rgb(51, 51, 51); stroke-opacity: 1; stroke-width: 1px;"/><g class="xtick"><text text-anchor="middle" x="0" y="356.0566929133858" transform="translate(123.2625634295713,0)" style="font-family: 'Computer Modern'; font-size: 28px; fill: rgb(76, 76, 76); fill-opacity: 1; white-space: pre; opacity: 1;">0</text></g><g class="xtick"><text text-anchor="middle" x="0" y="356.0566929133858" style="font-family: 'Computer Modern'; font-size: 28px; fill: rgb(76, 76, 76); fill-opacity: 1; white-space: pre; opacity: 1;" transform="translate(215.0725634295713,0)">10</text></g><g class="xtick"><text text-anchor="middle" x="0" y="356.0566929133858" style="font-family: 'Computer Modern'; font-size: 28px; fill: rgb(76, 76, 76); fill-opacity: 1; white-space: pre; opacity: 1;" transform="translate(306.8725634295713,0)">20</text></g><g class="xtick"><text text-anchor="middle" x="0" y="356.0566929133858" style="font-family: 'Computer Modern'; font-size: 28px; fill: rgb(76, 76, 76); fill-opacity: 1; white-space: pre; opacity: 1;" transform="translate(398.6825634295713,0)">30</text></g><g class="xtick"><text text-anchor="middle" x="0" y="356.0566929133858" style="font-family: 'Computer Modern'; font-size: 28px; fill: rgb(76, 76, 76); fill-opacity: 1; white-space: pre; opacity: 1;" transform="translate(490.4825634295713,0)">40</text></g><g class="xtick"><text text-anchor="middle" x="0" y="356.0566929133858" style="font-family: 'Computer Modern'; font-size: 28px; fill: rgb(76, 76, 76); fill-opacity: 1; white-space: pre; opacity: 1;" transform="translate(582.2925634295714,0)">50</text></g></g><g class="yaxislayer-above"><path class="ytick ticks crisp" d="M108.4925634295713,0h-5" transform="translate(0,309.22330708661417)" style="stroke: rgb(51, 51, 51); stroke-opacity: 1; stroke-width: 1px;"/><path class="ytick ticks crisp" d="M108.4925634295713,0h-5" transform="translate(0,228.91330708661417)" style="stroke: rgb(51, 51, 51); stroke-opacity: 1; stroke-width: 1px;"/><path class="ytick ticks crisp" d="M108.4925634295713,0h-5" transform="translate(0,148.59330708661415)" style="stroke: rgb(51, 51, 51); stroke-opacity: 1; stroke-width: 1px;"/><path class="ytick ticks crisp" d="M108.4925634295713,0h-5" transform="translate(0,68.27330708661415)" style="stroke: rgb(51, 51, 51); stroke-opacity: 1; stroke-width: 1px;"/><g class="ytick"><text text-anchor="end" x="97.89256342957131" y="9.799999999999999" transform="translate(0,309.22330708661417)" style="font-family: 'Computer Modern'; font-size: 28px; fill: rgb(76, 76, 76); fill-opacity: 1; white-space: pre; opacity: 1;">0</text></g><g class="ytick"><text text-anchor="end" x="97.89256342957131" y="9.799999999999999" style="font-family: 'Computer Modern'; font-size: 28px; fill: rgb(76, 76, 76); fill-opacity: 1; white-space: pre; opacity: 1;" transform="translate(0,228.91330708661417)">200</text></g><g class="ytick"><text text-anchor="end" x="97.89256342957131" y="9.799999999999999" style="font-family: 'Computer Modern'; font-size: 28px; fill: rgb(76, 76, 76); fill-opacity: 1; white-space: pre; opacity: 1;" transform="translate(0,148.59330708661415)">400</text></g><g class="ytick"><text text-anchor="end" x="97.89256342957131" y="9.799999999999999" style="font-family: 'Computer Modern'; font-size: 28px; fill: rgb(76, 76, 76); fill-opacity: 1; white-space: pre; opacity: 1;" transform="translate(0,68.27330708661415)">600</text></g></g><g class="overaxes-above"/></g></g><g class="polarlayer"/><g class="ternarylayer"/><g class="geolayer"/><g class="funnelarealayer"/><g class="pielayer"/><g class="iciclelayer"/><g class="treemaplayer"/><g class="sunburstlayer"/><g class="glimages"/><defs id="topdefs-a09b68"><g class="clips"/></defs><g class="layer-above"><g class="imagelayer"/><g class="shapelayer"/></g><g class="infolayer"><g class="g-gtitle"/><g class="g-xtitle" transform="translate(0,-53.45669291338578)"><text class="xtitle" x="352.77777777777777" y="443.4566929133858" text-anchor="middle" style="font-family: 'Computer Modern'; font-size: 39px; fill: rgb(0, 0, 0); opacity: 1; font-weight: normal; white-space: pre;">Time</text></g><g class="g-ytitle" transform="translate(14.0078125,0)"><text class="ytitle" transform="rotate(-90,21.492563429571305,188.74999999999997)" x="21.492563429571305" y="188.74999999999997" text-anchor="middle" style="font-family: 'Computer Modern'; font-size: 39px; fill: rgb(0, 0, 0); opacity: 1; font-weight: normal; white-space: pre;">People</text></g><g class="annotation" data-index="0" style="opacity: 1;"><g class="annotation-text-g" transform="rotate(0,352.77777777777777,46.5)"><g class="cursor-pointer" transform="translate(318,20)"><rect class="bg" x="0.5" y="0.5" width="68" height="52" style="stroke-width: 1px; stroke: rgb(0, 0, 0); stroke-opacity: 0; fill: rgb(0, 0, 0); fill-opacity: 0;"/><text class="annotation-text" text-anchor="middle" x="34.6796875" y="40" style="font-family: 'Computer Modern'; font-size: 42px; fill: rgb(0, 0, 0); fill-opacity: 1; white-space: pre;">SIR</text></g></g></g></g></svg>