<svg class="main-svg" xmlns="http://www.w3.org/2000/svg" xmlns:xlink="http://www.w3.org/1999/xlink" width="600" height="400" style=""><rect x="0" y="0" width="600" height="400" style="fill: rgb(255, 255, 255); fill-opacity: 1;"/><defs id="defs-fdea5b"><g class="clips"><clipPath id="clipfdea5bxyplot" class="plotclip"><rect width="427.3710265383494" height="255.41338582677164"/></clipPath><clipPath class="axesclip" id="clipfdea5bx"><rect x="96.1709682123068" y="0" width="427.3710265383494" height="400"/></clipPath><clipPath class="axesclip" id="clipfdea5by"><rect x="0" y="61.043307086614156" width="600" height="255.41338582677164"/></clipPath><clipPath class="axesclip" id="clipfdea5bxy"><rect x="96.1709682123068" y="61.043307086614156" width="427.3710265383494" height="255.41338582677164"/></clipPath></g><g class="gradients"/><g class="patterns"/></defs><g class="bglayer"><rect class="bg" x="96.1709682123068" y="61.043307086614156" width="427.3710265383494" height="255.41338582677164" style="fill: rgb(235, 235, 235); fill-opacity: 1; stroke-width: 0;"/></g><g class="layer-below"><g class="imagelayer"/><g class="shapelayer"/></g><g class="cartesianlayer"><g class="subplot xy"><g class="layer-subplot"><g class="shapelayer"/><g class="imagelayer"/></g><g class="gridlayer"><g class="x"><path class="xgrid crisp" transform="translate(108.2709682123068,0)" d="M0,61.043307086614156v255.41338582677164" style="stroke: rgb(255, 255, 255); stroke-opacity: 1; stroke-width: 1px;"/><path class="xgrid crisp" transform="translate(188.9009682123068,0)" d="M0,61.043307086614156v255.41338582677164" style="stroke: rgb(255, 255, 255); stroke-opacity: 1; stroke-width: 1px;"/><path class="xgrid crisp" transform="translate(269.5409682123068,0)" d="M0,61.043307086614156v255.41338582677164" style="stroke: rgb(255, 255, 255); stroke-opacity: 1; stroke-width: 1px;"/><path class="xgrid crisp" transform="translate(350.1709682123068,0)" d="M0,61.043307086614156v255.41338582677164" style="stroke: rgb(255, 255, 255); stroke-opacity: 1; stroke-width: 1px;"/><path class="xgrid crisp" transform="translate(430.81096821230676,0)" d="M0,61.043307086614156v255.41338582677164" style="stroke: rgb(255, 255, 255); stroke-opacity: 1; stroke-width: 1px;"/><path class="xgrid crisp" transform="translate(511.45096821230675,0)" d="M0,61.043307086614156v255.41338582677164" style="stroke: rgb(255, 255, 255); stroke-opacity: 1; stroke-width: 1px;"/></g><g class="y"><path class="ygrid crisp" transform="translate(0,309.22330708661417)" d="M96.1709682123068,0h427.3710265383494" style="stroke: rgb(255, 255, 255); stroke-opacity: 1; stroke-width: 1px;"/><path class="ygrid crisp" transform="translate(0,248.99330708661415)" d="M96.1709682123068,0h427.3710265383494" style="stroke: rgb(255, 255, 255); stroke-opacity: 1; stroke-width: 1px;"/><path class="ygrid crisp" transform="translate(0,188.75330708661414)" d="M96.1709682123068,0h427.3710265383494" style="stroke: rgb(255, 255, 255); stroke-opacity: 1; stroke-width: 1px;"/><path class="ygrid crisp" transform="translate(0,128.51330708661416)" d="M96.1709682123068,0h427.3710265383494" style="stroke: rgb(255, 255, 255); stroke-opacity: 1; stroke-width: 1px;"/><path class="ygrid crisp" transform="translate(0,68.27330708661415)" d="M96.1709682123068,0h427.3710265383494" style="stroke: rgb(255, 255, 255); stroke-opacity: 1; stroke-width: 1px;"/></g></g><g class="zerolinelayer"/><path class="xlines-below"/><path class="ylines-below"/><g class="overlines-below"/><g class="xaxislayer-below"/><g class="yaxislayer-below"/><g class="overaxes-below"/><g class="plot" transform="translate(96.1709682123068,61.043307086614156)" clip-path="url(#clipfdea5bxyplot)"><g class="scatterlayer mlayer"><g class="trace scatter tracee6738f" style="stroke-miterlimit: 2; opacity: 1;"><g class="fills"/><g class="errorbars"/><g class="lines"><path class="js-line" d="M12.1,7.23L20.32,10.21L25.43,12.69L34.42,18.64L36.78,20.62L45.01,29.14L50.93,37.13L59.2,51.28L61.46,55.8L69.69,74.53L75.81,90.56L102.61,166.37L109.06,181.84L117.45,198.7L119.06,201.51L127.29,213.81L133.77,221.33L142.08,228.65L143.75,229.86L151.97,234.79L158.53,237.72L168.43,240.93L175.03,242.48L191.53,245.01L193.12,245.18L217.8,246.9L224.44,247.15L258.94,247.85L265.65,247.91L415.28,248.18" style="vector-effect: non-scaling-stroke; fill: none; stroke: rgb(0, 154, 250); stroke-opacity: 1; stroke-width: 2px; opacity: 1;"/></g><g class="points"/><g class="text"/></g><g class="trace scatter trace8fe1bd" style="stroke-miterlimit: 2; opacity: 1;"><g class="fills"/><g class="errorbars"/><g class="lines"><path class="js-line" d="M12.1,242.16L20.32,239.31L25.43,236.92L34.42,231.19L36.78,229.29L45.01,221.09L50.93,213.41L59.2,199.82L61.46,195.48L69.69,177.56L75.81,162.31L102.61,91.73L109.06,77.97L117.45,63.55L119.06,61.23L127.29,51.57L133.77,46.25L135.52,45.12L142.08,41.86L150.23,39.64L151.97,39.39L160.2,38.98L166.74,39.44L176.66,41.08L183.27,42.63L201.34,48.03L207.98,50.27L267.17,71.87L273.9,74.31L332.99,94.55L339.93,96.78L390.59,112.16L398.82,114.51L415.28,119.1" style="vector-effect: non-scaling-stroke; fill: none; stroke: rgb(227, 111, 71); stroke-opacity: 1; stroke-width: 2px; opacity: 1;"/></g><g class="points"/><g class="text"/></g><g class="trace scatter trace35be8f" style="stroke-miterlimit: 2; opacity: 1;"><g class="fills"/><g class="errorbars"/><g class="lines"><path class="js-line" d="M12.1,248.18L53.24,247.28L59.2,246.96L77.92,245.37L84.11,244.6L102.61,241.56L109.06,240.25L135.52,234.03L142.08,232.36L283.62,196.3L290.4,194.69L349.45,181.14L356.26,179.64L407.05,168.82L415.28,167.14" style="vector-effect: non-scaling-stroke; fill: none; stroke: rgb(62, 164, 78); stroke-opacity: 1; stroke-width: 2px; opacity: 1;"/></g><g class="points"/><g class="text"/></g><g class="trace scatter trace4debe0" style="stroke-miterlimit: 2; opacity: 1;"><g class="fills"/><g class="errorbars"/><g class="lines"><path class="js-line" d="M12.1,248.18L61.46,247.5L67.52,247.28L94.38,245.61L100.72,245.05L135.52,241.1L142.08,240.27L242.48,227.76L249.16,226.99L348.45,216.82L349.45,216.72L415.28,211.07" style="vector-effect: non-scaling-stroke; fill: none; stroke: rgb(195, 113, 210); stroke-opacity: 1; stroke-width: 2px; opacity: 1;"/></g><g class="points"/><g class="text"/></g><g class="trace scatter trace585807" style="stroke-miterlimit: 2; opacity: 1;"><g class="fills"/><g class="errorbars"/><g class="lines"><path class="js-line" d="M12.1,127.71L53.24,128.31L59.2,128.64L75.81,130.32L77.92,130.65L92.4,134.04L94.38,134.68L102.61,138L109.06,141.42L117.45,147.13L119.06,148.41L127.29,155.89L133.77,162.87L143.75,175.2L150.23,183.85L168.43,207.53L175.03,214.91L184.89,224.14L191.53,229.12L201.34,234.82L207.98,237.72L217.8,240.93L224.44,242.52L234.26,244.25L240.92,245.1L258.94,246.56L265.65,246.9L308.31,247.86L315.24,247.92L415.28,248.17" style="vector-effect: non-scaling-stroke; fill: none; stroke: rgb(172, 142, 24); stroke-opacity: 1; stroke-width: 2px; opacity: 1;"/></g><g class="points"/><g class="text"/></g><g class="trace scatter trace7a9b07" style="stroke-miterlimit: 2; opacity: 1;"><g class="fills"/><g class="errorbars"/><g class="lines"><path class="js-line" d="M12.1,248.18L110.83,247.57L117.45,247.34L143.75,245.55L150.23,244.84L175.03,241.13L176.66,240.84L234.26,229.39L240.92,228.09L283.62,220.5L290.4,219.41L332.99,213.31L339.93,212.43L390.59,206.87L398.82,206.1L415.28,204.66" style="vector-effect: non-scaling-stroke; fill: none; stroke: rgb(0, 170, 174); stroke-opacity: 1; stroke-width: 2px; opacity: 1;"/></g><g class="points"/><g class="text"/></g><g class="trace scatter trace90dbf3" style="stroke-miterlimit: 2; opacity: 1;"><g class="fills"/><g class="errorbars"/><g class="lines"><path class="js-line" d="M12.1,248.18L59.2,247.43L61.46,247.31L77.92,245.83L84.11,244.87L94.38,242.52L100.72,240.45L110.83,235.86L117.45,231.84L127.29,224.18L133.77,218.06L143.75,207.31L150.23,199.83L166.74,181.76L168.43,180.14L176.66,173.15L183.27,168.71L191.53,164.65L193.12,164.05L201.34,161.73L207.98,160.72L217.8,160.33L224.44,160.63L234.26,161.66L240.92,162.66L267.17,167.76L273.9,169.22L365.91,188.28L371.53,189.31L415.28,196.71" style="vector-effect: non-scaling-stroke; fill: none; stroke: rgb(237, 94, 147); stroke-opacity: 1; stroke-width: 2px; opacity: 1;"/></g><g class="points"/><g class="text"/></g><g class="trace scatter tracee443dc" style="stroke-miterlimit: 2; opacity: 1;"><g class="fills"/><g class="errorbars"/><g class="lines"><path class="js-line" d="M12.1,248.18L127.29,247.52L133.77,247.31L168.43,245.19L175.03,244.61L226.03,239.27L232.67,238.55L308.31,231.09L315.24,230.49L371.53,226L374.13,225.81L415.28,223.01" style="vector-effect: non-scaling-stroke; fill: none; stroke: rgb(198, 130, 37); stroke-opacity: 1; stroke-width: 2px; opacity: 1;"/></g><g class="points"/><g class="text"/></g></g></g><g class="overplot"/><path class="xlines-above crisp" d="M95.1709682123068,316.9566929133858H523.5419947506562" style="fill: none; stroke-width: 1px; stroke: rgb(51, 51, 51); stroke-opacity: 1;"/><path class="ylines-above crisp" d="M95.6709682123068,61.043307086614156V316.4566929133858" style="fill: none; stroke-width: 1px; stroke: rgb(51, 51, 51); stroke-opacity: 1;"/><g class="overlines-above"/><g class="xaxislayer-above"><path class="xtick ticks crisp" d="M0,317.4566929133858v5" transform="translate(108.2709682123068,0)" style="stroke: rgb(51, 51, 51); stroke-opacity: 1; stroke-width: 1px;"/><path class="xtick ticks crisp" d="M0,317.4566929133858v5" transform="translate(188.9009682123068,0)" style="stroke: rgb(51, 51, 51); stroke-opacity: 1; stroke-width: 1px;"/><path class="xtick ticks crisp" d="M0,317.4566929133858v5" transform="translate(269.5409682123068,0)" style="stroke: rgb(51, 51, 51); stroke-opacity: 1; stroke-width: 1px;"/><path class="xtick ticks crisp" d="M0,317.4566929133858v5" transform="translate(350.1709682123068,0)" style="stroke: rgb(51, 51, 51); stroke-opacity: 1; stroke-width: 1px;"/><path class="xtick ticks crisp" d="M0,317.4566929133858v5" transform="translate(430.81096821230676,0)" style="stroke: rgb(51, 51, 51); stroke-opacity: 1; stroke-width: 1px;"/><path class="xtick ticks crisp" d="M0,317.4566929133858v5" transform="translate(511.45096821230675,0)" style="stroke: rgb(51, 51, 51); stroke-opacity: 1; stroke-width: 1px;"/><g class="xtick"><text text-anchor="middle" x="0" y="356.0566929133858" transform="translate(108.2709682123068,0)" style="font-family: 'Computer Modern'; font-size: 28px; fill: rgb(76, 76, 76); fill-opacity: 1; white-space: pre; opacity: 1;">0</text></g><g class="xtick"><text text-anchor="middle" x="0" y="356.0566929133858" style="font-family: 'Computer Modern'; font-size: 28px; fill: rgb(76, 76, 76); fill-opacity: 1; white-space: pre; opacity: 1;" transform="translate(188.9009682123068,0)">10</text></g><g class="xtick"><text text-anchor="middle" x="0" y="356.0566929133858" style="font-family: 'Computer Modern'; font-size: 28px; fill: rgb(76, 76, 76); fill-opacity: 1; white-space: pre; opacity: 1;" transform="translate(269.5409682123068,0)">20</text></g><g class="xtick"><text text-anchor="middle" x="0" y="356.0566929133858" style="font-family: 'Computer Modern'; font-size: 28px; fill: rgb(76, 76, 76); fill-opacity: 1; white-space: pre; opacity: 1;" transform="translate(350.1709682123068,0)">30</text></g><g class="xtick"><text text-anchor="middle" x="0" y="356.0566929133858" style="font-family: 'Computer Modern'; font-size: 28px; fill: rgb(76, 76, 76); fill-opacity: 1; white-space: pre; opacity: 1;" transform="translate(430.81096821230676,0)">40</text></g><g class="xtick"><text text-anchor="middle" x="0" y="356.0566929133858" style="font-family: 'Computer Modern'; font-size: 28px; fill: rgb(76, 76, 76); fill-opacity: 1; white-space: pre; opacity: 1;" transform="translate(511.45096821230675,0)">50</text></g></g><g class="yaxislayer-above"><path class="ytick ticks crisp" d="M95.1709682123068,0h-5" transform="translate(0,309.22330708661417)" style="stroke: rgb(51, 51, 51); stroke-opacity: 1; stroke-width: 1px;"/><path class="ytick ticks crisp" d="M95.1709682123068,0h-5" transform="translate(0,248.99330708661415)" style="stroke: rgb(51, 51, 51); stroke-opacity: 1; stroke-width: 1px;"/><path class="ytick ticks crisp" d="M95.1709682123068,0h-5" transform="translate(0,188.75330708661414)" style="stroke: rgb(51, 51, 51); stroke-opacity: 1; stroke-width: 1px;"/><path class="ytick ticks crisp" d="M95.1709682123068,0h-5" transform="translate(0,128.51330708661416)" style="stroke: rgb(51, 51, 51); stroke-opacity: 1; stroke-width: 1px;"/><path class="ytick ticks crisp" d="M95.1709682123068,0h-5" transform="translate(0,68.27330708661415)" style="stroke: rgb(51, 51, 51); stroke-opacity: 1; stroke-width: 1px;"/><g class="ytick"><text text-anchor="end" x="84.57096821230681" y="9.799999999999999" transform="translate(0,309.22330708661417)" style="font-family: 'Computer Modern'; font-size: 28px; fill: rgb(76, 76, 76); fill-opacity: 1; white-space: pre; opacity: 1;">0</text></g><g class="ytick"><text text-anchor="end" x="84.57096821230681" y="9.799999999999999" style="font-family: 'Computer Modern'; font-size: 28px; fill: rgb(76, 76, 76); fill-opacity: 1; white-space: pre; opacity: 1;" transform="translate(0,248.99330708661415)">100</text></g><g class="ytick"><text text-anchor="end" x="84.57096821230681" y="9.799999999999999" style="font-family: 'Computer Modern'; font-size: 28px; fill: rgb(76, 76, 76); fill-opacity: 1; white-space: pre; opacity: 1;" transform="translate(0,188.75330708661414)">200</text></g><g class="ytick"><text text-anchor="end" x="84.57096821230681" y="9.799999999999999" style="font-family: 'Computer Modern'; font-size: 28px; fill: rgb(76, 76, 76); fill-opacity: 1; white-space: pre; opacity: 1;" transform="translate(0,128.51330708661416)">300</text></g><g class="ytick"><text text-anchor="end" x="84.57096821230681" y="9.799999999999999" style="font-family: 'Computer Modern'; font-size: 28px; fill: rgb(76, 76, 76); fill-opacity: 1; white-space: pre; opacity: 1;" transform="translate(0,68.27330708661415)">400</text></g></g><g class="overaxes-above"/></g></g><g class="polarlayer"/><g class="ternarylayer"/><g class="geolayer"/><g class="funnelarealayer"/><g class="pielayer"/><g class="iciclelayer"/><g class="treemaplayer"/><g class="sunburstlayer"/><g class="glimages"/><defs id="topdefs-fdea5b"><g class="clips"/><clipPath id="legendfdea5b"><rect width="62" height="232" x="0" y="0"/></clipPath></defs><g class="layer-above"><g class="imagelayer"/><g class="shapelayer"/></g><g class="infolayer"><g class="legend" pointer-events="all" transform="translate(537.54,20)"><rect class="bg" shape-rendering="crispEdges" width="62" height="232" x="0" y="0" style="stroke: rgb(68, 68, 68); stroke-opacity: 1; fill: rgb(255, 255, 255); fill-opacity: 1; stroke-width: 0px;"/><g class="scrollbox" transform="" clip-path="url(#legendfdea5b)"><g class="groups" transform=""><g class="traces" transform="translate(0,14.5)" style="opacity: 1;"><text class="legendtext" text-anchor="start" x="40" y="4.680000000000001" style="font-family: 'Open Sans', verdana, arial, sans-serif; font-size: 12px; fill: rgb(68, 68, 68); fill-opacity: 1; white-space: pre;">S1</text><g class="layers" style="opacity: 1;"><g class="legendfill"/><g class="legendlines"><path class="js-line" d="M5,0h30" style="fill: none; stroke: rgb(0, 154, 250); stroke-opacity: 1; stroke-width: 2px;"/></g><g class="legendsymbols"><g class="legendpoints"/></g></g><rect class="legendtoggle" x="0" y="-9.5" width="56.875" height="19" style="fill: rgb(0, 0, 0); fill-opacity: 0;"/></g></g><g class="groups" transform="translate(0,10)"><g class="traces" transform="translate(0,33.5)" style="opacity: 1;"><text class="legendtext" text-anchor="start" x="40" y="4.680000000000001" style="font-family: 'Open Sans', verdana, arial, sans-serif; font-size: 12px; fill: rgb(68, 68, 68); fill-opacity: 1; white-space: pre;">I1</text><g class="layers" style="opacity: 1;"><g class="legendfill"/><g class="legendlines"><path class="js-line" d="M5,0h30" style="fill: none; stroke: rgb(227, 111, 71); stroke-opacity: 1; stroke-width: 2px;"/></g><g class="legendsymbols"><g class="legendpoints"/></g></g><rect class="legendtoggle" x="0" y="-9.5" width="56.875" height="19" style="fill: rgb(0, 0, 0); fill-opacity: 0;"/></g></g><g class="groups" transform="translate(0,20)"><g class="traces" transform="translate(0,52.5)" style="opacity: 1;"><text class="legendtext" text-anchor="start" x="40" y="4.680000000000001" style="font-family: 'Open Sans', verdana, arial, sans-serif; font-size: 12px; fill: rgb(68, 68, 68); fill-opacity: 1; white-space: pre;">R1</text><g class="layers" style="opacity: 1;"><g class="legendfill"/><g class="legendlines"><path class="js-line" d="M5,0h30" style="fill: none; stroke: rgb(62, 164, 78); stroke-opacity: 1; stroke-width: 2px;"/></g><g class="legendsymbols"><g class="legendpoints"/></g></g><rect class="legendtoggle" x="0" y="-9.5" width="56.875" height="19" style="fill: rgb(0, 0, 0); fill-opacity: 0;"/></g></g><g class="groups" transform="translate(0,30)"><g class="traces" transform="translate(0,71.5)" style="opacity: 1;"><text class="legendtext" text-anchor="start" x="40" y="4.680000000000001" style="font-family: 'Open Sans', verdana, arial, sans-serif; font-size: 12px; fill: rgb(68, 68, 68); fill-opacity: 1; white-space: pre;">D1</text><g class="layers" style="opacity: 1;"><g class="legendfill"/><g class="legendlines"><path class="js-line" d="M5,0h30" style="fill: none; stroke: rgb(195, 113, 210); stroke-opacity: 1; stroke-width: 2px;"/></g><g class="legendsymbols"><g class="legendpoints"/></g></g><rect class="legendtoggle" x="0" y="-9.5" width="56.875" height="19" style="fill: rgb(0, 0, 0); fill-opacity: 0;"/></g></g><g class="groups" transform="translate(0,40)"><g class="traces" transform="translate(0,90.5)" style="opacity: 1;"><text class="legendtext" text-anchor="start" x="40" y="4.680000000000001" style="font-family: 'Open Sans', verdana, arial, sans-serif; font-size: 12px; fill: rgb(68, 68, 68); fill-opacity: 1; white-space: pre;">S2</text><g class="layers" style="opacity: 1;"><g class="legendfill"/><g class="legendlines"><path class="js-line" d="M5,0h30" style="fill: none; stroke: rgb(172, 142, 24); stroke-opacity: 1; stroke-width: 2px;"/></g><g class="legendsymbols"><g class="legendpoints"/></g></g><rect class="legendtoggle" x="0" y="-9.5" width="56.875" height="19" style="fill: rgb(0, 0, 0); fill-opacity: 0;"/></g></g><g class="groups" transform="translate(0,50)"><g class="traces" transform="translate(0,109.5)" style="opacity: 1;"><text class="legendtext" text-anchor="start" x="40" y="4.680000000000001" style="font-family: 'Open Sans', verdana, arial, sans-serif; font-size: 12px; fill: rgb(68, 68, 68); fill-opacity: 1; white-space: pre;">I2</text><g class="layers" style="opacity: 1;"><g class="legendfill"/><g class="legendlines"><path class="js-line" d="M5,0h30" style="fill: none; stroke: rgb(0, 170, 174); stroke-opacity: 1; stroke-width: 2px;"/></g><g class="legendsymbols"><g class="legendpoints"/></g></g><rect class="legendtoggle" x="0" y="-9.5" width="56.875" height="19" style="fill: rgb(0, 0, 0); fill-opacity: 0;"/></g></g><g class="groups" transform="translate(0,60)"><g class="traces" transform="translate(0,128.5)" style="opacity: 1;"><text class="legendtext" text-anchor="start" x="40" y="4.680000000000001" style="font-family: 'Open Sans', verdana, arial, sans-serif; font-size: 12px; fill: rgb(68, 68, 68); fill-opacity: 1; white-space: pre;">R2</text><g class="layers" style="opacity: 1;"><g class="legendfill"/><g class="legendlines"><path class="js-line" d="M5,0h30" style="fill: none; stroke: rgb(237, 94, 147); stroke-opacity: 1; stroke-width: 2px;"/></g><g class="legendsymbols"><g class="legendpoints"/></g></g><rect class="legendtoggle" x="0" y="-9.5" width="56.875" height="19" style="fill: rgb(0, 0, 0); fill-opacity: 0;"/></g></g><g class="groups" transform="translate(0,70)"><g class="traces" transform="translate(0,147.5)" style="opacity: 1;"><text class="legendtext" text-anchor="start" x="40" y="4.680000000000001" style="font-family: 'Open Sans', verdana, arial, sans-serif; font-size: 12px; fill: rgb(68, 68, 68); fill-opacity: 1; white-space: pre;">D2</text><g class="layers" style="opacity: 1;"><g class="legendfill"/><g class="legendlines"><path class="js-line" d="M5,0h30" style="fill: none; stroke: rgb(198, 130, 37); stroke-opacity: 1; stroke-width: 2px;"/></g><g class="legendsymbols"><g class="legendpoints"/></g></g><rect class="legendtoggle" x="0" y="-9.5" width="56.875" height="19" style="fill: rgb(0, 0, 0); fill-opacity: 0;"/></g></g></g><rect class="scrollbar" rx="20" ry="3" width="0" height="0" x="0" y="0" style="fill: rgb(128, 139, 164); fill-opacity: 1;"/></g><g class="g-gtitle"/><g class="g-xtitle" transform="translate(0,-53.45669291338578)"><text class="xtitle" x="309.8564814814815" y="443.4566929133858" text-anchor="middle" style="font-family: 'Computer Modern'; font-size: 39px; fill: rgb(0, 0, 0); opacity: 1; font-weight: normal; white-space: pre;">Time</text></g><g class="g-ytitle" transform="translate(27.3291015625,0)"><text class="ytitle" transform="rotate(-90,8.170968212306803,188.74999999999997)" x="8.170968212306803" y="188.74999999999997" text-anchor="middle" style="font-family: 'Computer Modern'; font-size: 39px; fill: rgb(0, 0, 0); opacity: 1; font-weight: normal; white-space: pre;">People</text></g><g class="annotation" data-index="0" style="opacity: 1;"><g class="annotation-text-g" transform="rotate(0,309.85648148148147,46.500000000000014)"><g class="cursor-pointer" transform="translate(97,20)"><rect class="bg" x="0.5" y="0.5" width="424" height="52" style="stroke-width: 1px; stroke: rgb(0, 0, 0); stroke-opacity: 0; fill: rgb(0, 0, 0); fill-opacity: 0;"/><text class="annotation-text" text-anchor="middle" x="212.63671875" y="40" style="font-family: 'Computer Modern'; font-size: 42px; fill: rgb(0, 0, 0); fill-opacity: 1; white-space: pre;">SIRD 2-City True Model</text></g></g></g></g></svg>